<svg version="1.1" id="Layer_1" xmlns="http://www.w3.org/2000/svg" xmlns:xlink="http://www.w3.org/1999/xlink" x="0px" y="0px"
	 width="100%" viewBox="0 0 517 517" enable-background="new 0 0 517 517" xml:space="preserve">
<path fill="#FFFFFF" opacity="1.000000" stroke="none" 
	d="
M333.000000,518.000000 
	C222.026703,518.000000 111.553413,518.000000 1.040061,518.000000 
	C1.040061,345.735046 1.040061,173.470062 1.040061,1.102540 
	C173.223267,1.102540 345.446625,1.102540 517.834961,1.102540 
	C517.834961,173.333206 517.834961,345.666595 517.834961,518.000000 
	C456.470093,518.000000 394.985046,518.000000 333.000000,518.000000 
M246.121399,433.628815 
	C245.235443,433.672546 243.577484,433.686829 243.574524,433.764221 
	C243.445786,437.139893 243.463516,440.521179 243.463516,443.901764 
	C243.962418,443.916534 244.461319,443.931274 244.960236,443.946045 
	C245.638718,440.941315 246.317215,437.936554 247.849808,434.899628 
	C248.623001,436.221588 249.643906,437.463501 250.103699,438.886719 
	C250.622849,440.493622 250.637558,442.263489 250.871658,443.962463 
	C251.491272,443.921631 252.110870,443.880768 252.730484,443.839905 
	C252.730484,441.525360 252.999054,439.171417 252.666840,436.905579 
	C252.181671,433.596405 250.382111,431.879456 246.121399,433.628815 
M361.014648,430.982758 
	C359.443604,429.423187 358.214386,429.295410 358.140900,431.919586 
	C358.031281,435.835022 358.112457,439.755768 358.112457,443.902130 
	C360.046661,443.902130 361.499329,443.902130 363.677948,443.982300 
	C368.891602,441.194244 368.892792,440.961456 364.005615,430.303894 
	C363.060791,430.793854 362.099792,431.292236 361.014648,430.982758 
M58.106281,264.232086 
	C57.869740,264.250641 57.633202,264.269196 57.396671,264.287781 
	C57.579914,264.541016 57.763161,264.794281 58.150803,265.688416 
	C74.149223,283.860992 94.336357,295.295166 117.311340,302.034607 
	C152.061935,312.228271 187.126373,311.061066 222.015793,303.325745 
	C255.476883,295.907104 288.790222,288.119873 323.120789,285.524994 
	C361.159149,282.649750 398.942993,283.917572 436.515533,290.497253 
	C446.016724,292.161133 455.423584,294.363495 464.873810,296.318420 
	C463.733032,294.756104 462.331238,293.670258 460.767029,292.925476 
	C452.966309,289.210999 445.316772,285.077026 437.263672,282.010956 
	C377.408691,259.221954 316.127686,257.839355 254.069519,270.649200 
	C229.988495,275.619904 206.199860,282.146271 181.998596,286.358459 
	C154.716797,291.106812 127.307030,290.161530 100.314278,282.976440 
	C85.390625,279.003937 71.735085,272.229797 58.106281,264.232086 
M180.659470,237.172546 
	C218.056610,195.997269 255.453751,154.821976 293.441833,112.996056 
	C278.223297,112.996056 264.086792,113.089119 249.953308,112.923256 
	C246.856705,112.886909 244.796967,113.788086 242.706482,116.096886 
	C204.051483,158.788635 165.302490,201.395248 126.584862,244.030304 
	C121.289215,249.861740 116.055206,255.749161 109.985741,262.509430 
	C126.205040,262.509430 141.142792,262.576294 156.077484,262.393921 
	C157.400146,262.377777 158.929550,260.946899 159.978195,259.816254 
	C166.769272,252.494232 173.453583,245.073181 180.659470,237.172546 
M123.342216,211.842316 
	C153.003448,179.174683 182.664673,146.507065 213.095184,112.992172 
	C206.245621,112.992172 200.766205,112.752167 195.327408,113.117149 
	C193.315231,113.252190 190.860962,114.318611 189.516693,115.790092 
	C153.923737,154.751572 118.446495,193.818787 82.958069,232.875717 
	C74.261963,242.446259 65.595772,252.043991 56.087898,262.543488 
	C62.465488,262.543488 67.754532,262.876862 72.969131,262.398590 
	C75.463310,262.169830 78.476105,261.015228 80.129868,259.235413 
	C94.520142,243.748383 108.655350,228.024338 123.342216,211.842316 
M352.450897,379.499817 
	C352.450897,389.593994 352.450897,399.688141 352.450897,409.653259 
	C357.159760,409.653259 361.220154,409.653259 366.019104,409.653259 
	C366.019104,399.884491 366.019104,390.464569 366.019104,381.044647 
	C367.708588,382.036194 368.437408,383.098114 369.047272,384.224365 
	C373.157959,391.816040 377.157684,399.469971 381.417664,406.976471 
	C382.166718,408.296356 383.894135,409.722809 385.303802,409.877411 
	C389.004730,410.283295 392.779663,410.014496 397.114136,410.014496 
	C391.482971,399.487305 386.181366,389.576233 380.838745,379.588440 
	C382.792603,378.518494 384.618042,377.701965 386.246368,376.595398 
	C393.149109,371.904388 394.900574,365.026611 393.733185,357.299500 
	C392.597656,349.782990 388.479431,343.701233 380.893616,342.444672 
	C371.689514,340.920013 362.206726,341.077515 352.451080,340.483246 
	C352.451080,353.910706 352.451080,366.205231 352.450897,379.499817 
M476.944763,399.441101 
	C481.033539,410.222260 481.033600,410.225006 492.416138,409.993713 
	C493.010925,409.981659 493.603455,409.856506 494.575470,409.737823 
	C493.817230,407.522125 493.237366,405.646210 492.539093,403.815491 
	C485.734222,385.973999 478.894653,368.145752 472.096680,350.301636 
	C468.523163,340.921570 468.548462,341.079468 458.807434,340.897339 
	C455.568787,340.836761 454.197021,341.929352 453.120239,344.854492 
	C447.789001,359.336914 442.250885,373.743256 436.765411,388.168671 
	C434.065033,395.270050 431.320770,402.354797 428.551483,409.563995 
	C441.796387,411.137573 441.796204,411.137512 446.164185,399.763184 
	C446.283478,399.452515 446.326843,399.027618 446.555450,398.857971 
	C447.952271,397.821289 449.359985,396.040039 450.823730,395.980774 
	C458.138306,395.684753 465.476379,395.707031 472.793335,395.972260 
	C474.127777,396.020630 475.402557,397.715485 476.944763,399.441101 
M172.293671,341.053680 
	C165.883835,341.053680 159.473999,341.053680 153.367126,341.053680 
	C153.367126,364.471222 153.367126,387.195221 153.367126,409.794556 
	C157.690903,409.794556 161.641861,409.794556 166.141144,409.794556 
	C166.141144,400.090271 166.141144,390.581421 166.141144,381.072571 
	C166.540787,380.937561 166.940414,380.802582 167.340057,380.667572 
	C168.151886,381.942413 169.045074,383.173248 169.762115,384.499359 
	C173.869919,392.096375 177.863159,399.756897 182.090851,407.286011 
	C182.759827,408.477417 184.361954,409.760468 185.637283,409.879425 
	C189.347153,410.225555 193.110153,410.002228 197.561218,410.002228 
	C191.907913,399.391571 186.644440,389.512604 181.306137,379.493164 
	C187.865082,376.551453 192.810547,372.686462 194.055252,365.477112 
	C196.522781,351.185150 189.070251,342.437439 172.293671,341.053680 
M324.511414,366.137146 
	C321.255127,366.137146 317.998840,366.137146 314.896881,366.137146 
	C314.896881,361.666168 314.896881,357.922272 314.896881,353.806854 
	C323.150574,353.806854 331.075226,353.806854 339.255554,353.806854 
	C339.255554,349.352539 339.255554,345.290253 339.255554,341.304871 
	C326.555725,341.304871 314.164062,341.304871 301.760254,341.304871 
	C301.760254,364.347229 301.760254,387.061981 301.760254,409.682129 
	C314.471710,409.682129 326.859039,409.682129 339.269958,409.682129 
	C339.269958,405.412476 339.269958,401.487366 339.269958,397.030762 
	C330.924652,397.030762 322.860260,397.030762 314.888855,397.030762 
	C314.888855,390.763397 314.888855,385.038300 314.888855,378.995605 
	C323.152863,378.995605 331.095093,378.995605 339.236694,378.995605 
	C339.236694,374.599640 339.236694,370.535339 339.236694,366.137146 
	C334.444672,366.137146 329.973541,366.137146 324.511414,366.137146 
M282.712341,340.992126 
	C281.232513,340.992126 279.752686,340.992126 278.089020,340.992126 
	C272.268097,357.045349 266.508606,372.929016 260.364990,389.872162 
	C254.209808,372.838043 248.475388,356.968323 242.764954,341.164978 
	C238.297699,341.164978 234.172302,341.164978 229.432693,341.164978 
	C237.789963,364.361145 246.021332,387.207886 254.235855,410.007874 
	C256.755310,410.007874 258.781769,409.774689 260.734222,410.055634 
	C265.007812,410.670685 267.000732,409.193817 268.468536,404.843262 
	C273.878143,388.809479 279.890411,372.979431 285.642609,357.060669 
	C287.522614,351.857880 289.300812,346.618317 291.266541,340.992126 
	C288.266296,340.992126 285.946228,340.992126 282.712341,340.992126 
M76.673470,361.048462 
	C75.707741,361.699524 74.695854,362.291992 73.783249,363.010529 
	C61.417511,372.746918 59.547886,390.290985 69.607132,402.043304 
	C79.643967,413.769440 95.687263,414.401642 107.643501,403.564514 
	C108.166893,403.090057 108.870041,402.813934 109.965515,402.162262 
	C109.965515,405.085205 109.965515,407.361511 109.965515,409.713196 
	C112.128883,409.713196 114.025757,409.713196 115.865479,409.713196 
	C115.865479,392.677826 115.865479,375.944305 115.865479,359.195709 
	C113.770851,359.195709 111.996849,359.195709 110.013512,359.195709 
	C109.860893,361.773621 109.719574,364.160828 109.563622,366.795074 
	C94.845276,356.559509 88.782196,355.457062 76.673470,361.048462 
M206.941650,409.294464 
	C211.109085,409.606781 215.276520,409.919098 219.571259,410.240967 
	C219.571259,386.738922 219.571259,364.050171 219.571259,341.274780 
	C215.228546,341.274780 211.164307,341.274780 206.837799,341.274780 
	C206.837799,363.814026 206.837799,386.070953 206.941650,409.294464 
M406.153839,357.502350 
	C406.153839,374.898682 406.153839,392.295044 406.153839,409.705261 
	C410.815918,409.705261 414.882050,409.705261 418.901428,409.705261 
	C418.901428,386.709137 418.901428,364.017395 418.901428,341.309204 
	C414.565826,341.309204 410.513062,341.309204 406.153870,341.309204 
	C406.153870,346.582367 406.153870,351.543304 406.153839,357.502350 
M22.141251,379.499969 
	C22.141251,389.580200 22.141251,399.660431 22.141251,409.752991 
	C33.680286,409.752991 44.586361,409.752991 55.458225,409.752991 
	C55.458225,407.451721 55.458225,405.424988 55.458225,402.882996 
	C46.517265,402.882996 37.966991,402.882996 29.021393,402.882996 
	C29.021393,381.989288 29.021393,361.616882 29.021393,341.318176 
	C26.535042,341.318176 24.479462,341.318176 22.141264,341.318176 
	C22.141264,353.934692 22.141264,366.217316 22.141251,379.499969 
M290.550903,249.472137 
	C290.550903,245.857452 290.550903,242.242767 290.550903,238.393417 
	C283.449188,238.393417 276.873779,238.393417 270.047913,238.393417 
	C270.047913,245.178040 270.047913,251.929398 270.047913,258.677185 
	C276.845520,258.677185 283.541412,258.677185 290.550751,258.677185 
	C290.550751,255.707458 290.550751,253.073135 290.550903,249.472137 
M271.126190,206.174561 
	C270.507874,212.969864 269.889557,219.765182 269.274933,226.520020 
	C277.051056,226.520020 283.607727,226.520020 290.238007,226.520020 
	C290.238007,219.605850 290.238007,213.036530 290.238007,206.142822 
	C283.957550,206.142822 277.994659,206.142822 271.126190,206.174561 
M235.983887,248.509583 
	C235.983887,251.936768 235.983887,255.363953 235.983887,258.696106 
	C243.128571,258.696106 249.671234,258.696106 256.283173,258.696106 
	C256.283173,251.792786 256.283173,245.211761 256.283173,238.408234 
	C249.473724,238.408234 242.932861,238.408234 235.983887,238.408234 
	C235.983887,241.619476 235.983887,244.573914 235.983887,248.509583 
M235.978683,220.402313 
	C235.978683,222.481689 235.978683,224.561066 235.978683,226.639587 
	C243.141998,226.639587 249.566940,226.639587 256.151825,226.639587 
	C256.151825,219.728287 256.151825,213.045135 256.151825,206.145370 
	C249.933075,206.145370 244.121796,206.138474 238.310593,206.155319 
	C237.683289,206.157135 237.056381,206.296555 235.978683,206.426468 
	C235.978683,210.868759 235.978683,215.147934 235.978683,220.402313 
M462.062225,442.260498 
	C460.805725,438.054962 459.549225,433.849426 458.067383,428.889679 
	C456.687592,429.259735 453.224243,429.590942 453.142334,430.308197 
	C452.634827,434.753113 452.887054,439.284821 452.887054,443.787689 
	C453.412720,443.774872 453.938385,443.762024 454.464081,443.749207 
	C454.770020,441.782349 455.075958,439.815521 455.381897,437.848694 
	C455.802338,437.625519 456.222809,437.402313 456.643280,437.179138 
	C457.644348,438.504242 458.577179,439.889496 459.672028,441.132019 
	C460.333893,441.883148 461.247070,442.412781 462.062225,442.260498 
M107.712402,433.075500 
	C107.042679,431.582642 106.372955,430.089813 105.521111,428.191010 
	C103.454269,433.472015 103.705727,441.165588 106.346481,444.391266 
	C106.547531,441.712555 106.480148,439.619476 106.945236,437.652313 
	C107.184387,436.640808 108.372780,435.853760 109.132217,434.965271 
	C109.806946,435.892639 110.841858,436.736694 111.079788,437.765137 
	C111.544014,439.771667 111.562401,441.881409 111.765396,443.948395 
	C115.420250,437.661804 113.879860,433.597198 107.712402,433.075500 
M309.151276,439.503418 
	C308.307953,447.042389 313.833374,442.360504 316.906158,443.356232 
	C316.638824,439.848755 316.090424,436.506042 314.647339,433.609039 
	C314.272369,432.856232 311.102234,433.495728 309.215942,433.495728 
	C309.216431,433.868042 309.216919,434.240356 309.217438,434.612671 
	C310.794220,434.913818 312.371033,435.214996 314.388397,435.600311 
	C312.505981,437.123047 311.178497,438.196869 309.151276,439.503418 
M279.540314,436.174652 
	C278.197968,432.942261 275.759247,431.742584 272.856171,433.694031 
	C269.842896,435.719635 269.319489,439.019104 271.396149,441.967194 
	C273.318176,444.695740 276.089844,444.677307 279.010498,442.941101 
	C276.663910,442.072113 274.645599,441.324677 272.691772,440.601135 
	C275.626465,439.100800 277.733643,438.023499 279.540314,436.174652 
M36.151222,439.503418 
	C35.308075,447.042328 40.833347,442.360535 43.906254,443.356110 
	C43.638878,439.848633 43.090427,436.505920 41.647301,433.608917 
	C41.272278,432.856110 38.102200,433.495636 36.215935,433.495636 
	C36.219646,433.868591 36.223362,434.241547 36.227077,434.614502 
	C37.800323,434.915009 39.373569,435.215515 41.388550,435.600372 
	C39.506073,437.123077 38.178513,438.196899 36.151222,439.503418 
M421.827484,438.700775 
	C421.857910,434.050354 419.847992,431.893677 415.079010,433.319550 
	C414.703003,431.650360 414.364868,430.149384 414.026764,428.648407 
	C413.640717,428.685547 413.254639,428.722717 412.868591,428.759857 
	C412.868591,433.769226 412.868591,438.778595 412.868591,443.787964 
	C413.342804,443.828217 413.817017,443.868500 414.291260,443.908783 
	C414.471344,442.219391 414.441406,440.470795 414.895660,438.858673 
	C415.283691,437.481537 416.227631,436.261108 416.925690,434.971344 
	C417.673645,436.328156 418.667999,437.611145 419.102661,439.061829 
	C419.569061,440.618469 419.509277,442.332703 419.679108,443.978180 
	C420.217560,443.989044 420.756012,443.999908 421.294464,444.010773 
	C421.472534,442.520111 421.650604,441.029480 421.827484,438.700775 
M227.919601,434.593079 
	C227.919601,437.663544 227.919601,440.734039 227.919601,444.111847 
	C231.129471,443.900940 233.487228,443.746033 235.845001,443.591095 
	C235.820908,443.192841 235.796799,442.794586 235.772705,442.396301 
	C234.026733,442.189209 232.280746,441.982117 230.480133,441.768555 
	C230.480133,440.154816 230.480133,438.659210 230.480133,437.282257 
	C232.537659,437.068176 234.186020,436.896698 236.799591,436.624786 
	C234.246521,434.586304 228.822403,436.535248 231.223770,431.311249 
	C232.820694,430.991333 234.373550,430.680267 235.926392,430.369202 
	C235.868393,430.029388 235.810410,429.689545 235.752411,429.349701 
	C233.358536,429.349701 230.964661,429.349701 228.193237,429.349701 
	C228.102890,430.766937 228.011246,432.204437 227.919601,434.593079 
M189.492889,444.041840 
	C190.303070,443.746552 191.113251,443.451263 192.099457,443.091858 
	C189.671082,442.160980 187.634674,441.380371 185.598282,440.599792 
	C185.764877,440.142883 185.931473,439.685974 186.098068,439.229065 
	C188.375427,439.094147 190.652802,438.959229 194.727356,438.717834 
	C192.401108,436.485748 191.267273,434.535492 189.719467,434.117188 
	C187.466782,433.508484 184.535599,433.251312 183.966400,436.915344 
	C183.373428,440.732483 184.238266,443.575989 189.492889,444.041840 
M69.695671,444.044037 
	C70.780594,443.789734 71.865517,443.535431 73.140427,443.236572 
	C70.615692,442.182129 68.626938,441.351501 66.638191,440.520905 
	C66.812302,440.083984 66.986412,439.647064 67.160522,439.210144 
	C69.415947,439.088043 71.671379,438.965942 75.664474,438.749756 
	C73.407990,436.501984 72.316444,434.522034 70.807579,434.123993 
	C68.626907,433.548767 65.671051,433.147034 65.004768,436.745178 
	C64.364960,440.200348 64.935303,443.020477 69.695671,444.044037 
M149.068558,432.470459 
	C147.877228,431.567078 146.685898,430.663696 144.934174,429.335388 
	C144.934174,434.605194 144.934174,439.186310 144.934174,443.767395 
	C145.341003,443.798462 145.747833,443.829498 146.154663,443.860535 
	C146.481400,441.906281 146.808136,439.951996 147.141281,437.959351 
	C148.505707,437.959351 149.600189,437.959351 151.613998,437.959351 
	C150.880249,436.060638 150.292236,434.539032 149.068558,432.470459 
M29.032272,441.745544 
	C30.397636,438.539764 28.780962,436.798706 26.042295,435.550751 
	C23.478434,434.382507 21.474516,432.976227 24.427446,429.578735 
	C22.709009,430.533844 20.897755,431.911041 21.129513,432.573547 
	C21.706551,434.223022 23.204147,435.554810 24.350697,436.999390 
	C25.277653,438.167297 26.231619,439.313782 27.173597,440.469788 
	C25.820505,441.022675 24.485903,441.629425 23.105669,442.103241 
	C22.511665,442.307159 21.823048,442.235413 21.177410,442.288879 
	C21.294554,442.936371 21.411695,443.583893 21.528837,444.231384 
	C23.882177,443.606903 26.235519,442.982391 29.032272,441.745544 
M494.165833,442.078278 
	C493.760712,435.664917 499.723480,441.314911 501.536285,437.227570 
	C500.617859,436.385498 499.429901,434.437439 497.926514,434.152191 
	C496.329895,433.849365 493.108551,434.862457 492.931244,435.761414 
	C492.495880,437.968323 493.402710,440.439972 494.165833,442.078278 
M437.141602,436.928802 
	C436.711914,433.170471 433.728638,433.492188 431.544067,434.140503 
	C430.091675,434.571564 428.585419,436.528534 428.129059,438.100342 
	C427.720032,439.509155 428.713318,441.325134 429.087891,442.961456 
	C429.364777,442.909393 429.641663,442.857300 429.918549,442.805206 
	C430.058197,441.599274 430.197815,440.393341 430.256470,439.886536 
	C432.957642,439.040894 435.099701,438.370300 437.141602,436.928802 
M121.002731,442.444031 
	C121.152176,442.514679 121.296219,442.603455 121.452805,442.650116 
	C121.572762,442.685852 121.818130,442.689728 121.821648,442.671600 
	C122.051788,441.487610 122.262939,440.299866 122.460602,439.197021 
	C124.901337,439.080353 126.996735,438.980164 129.085938,438.880310 
	C129.505096,434.790497 127.705475,433.523743 124.162827,433.934479 
	C120.333839,434.378479 119.377258,436.403656 121.002731,442.444031 
M481.501160,443.851837 
	C483.194489,440.512573 484.887817,437.173309 486.581116,433.834045 
	C486.008545,433.582153 485.435974,433.330261 484.863403,433.078400 
	C483.852692,435.357056 482.841980,437.635742 481.648621,440.326172 
	C480.407349,437.537292 479.364136,435.193481 478.320923,432.849670 
	C477.768860,433.084991 477.216797,433.320343 476.664764,433.555695 
	C478.054047,436.885712 479.443359,440.215759 481.501160,443.851837 
M300.276184,431.756165 
	C299.892731,431.362366 299.245819,430.576508 299.163971,430.631561 
	C296.466003,432.444519 297.249725,442.438965 300.222076,443.863007 
	C300.842651,444.160309 301.727386,443.906158 301.117859,443.906158 
	C300.824036,439.868713 300.556610,436.193970 300.276184,431.756165 
M259.043182,434.542084 
	C259.385986,436.414764 259.853241,438.275024 260.042053,440.163116 
	C260.316956,442.912018 261.340698,444.475525 263.324585,444.056335 
	C262.773987,439.259125 262.268890,434.858551 261.657318,429.530060 
	C260.429047,431.497711 259.691833,432.678680 259.043182,434.542084 
M379.039368,443.101288 
	C379.204407,441.858521 379.852997,440.394012 379.410828,439.429718 
	C378.871216,438.252991 377.278900,437.607971 376.394897,436.526276 
	C375.543732,435.484741 375.015137,434.179626 374.344818,432.990295 
	C373.943207,433.225616 373.541595,433.460938 373.140015,433.696228 
	C374.076782,436.114105 375.517212,438.474304 375.802582,440.966736 
	C376.065277,443.261627 375.086182,445.698669 374.395599,449.494049 
	C376.340363,446.952393 377.569427,445.346161 379.039368,443.101288 
M53.718719,443.670776 
	C55.692562,440.412781 57.666405,437.154785 59.640247,433.896790 
	C59.014286,433.569244 58.388325,433.241669 57.762363,432.914124 
	C56.698376,435.248657 55.634388,437.583191 54.461212,440.157288 
	C53.183125,437.556519 52.081074,435.313995 50.979027,433.071442 
	C50.521084,433.282257 50.063141,433.493073 49.605202,433.703888 
	C50.793453,436.859283 51.981701,440.014679 53.718719,443.670776 
M171.275848,441.122284 
	C171.886093,442.109833 172.496323,443.097351 173.763977,445.148804 
	C175.549088,440.484436 176.878738,437.010132 178.208405,433.535797 
	C177.726974,433.324707 177.245529,433.113617 176.764099,432.902527 
	C175.703308,435.243622 174.642532,437.584686 173.457901,440.199066 
	C172.187286,437.570343 171.095169,435.310913 170.003052,433.051453 
	C169.564468,433.247498 169.125885,433.443542 168.687302,433.639618 
	C169.459290,435.898041 170.231277,438.156494 171.275848,441.122284 
M92.077866,433.931580 
	C92.077866,437.202057 92.077866,440.472534 92.077866,443.743011 
	C92.808647,443.747742 93.539421,443.752472 94.270203,443.757233 
	C94.270203,440.002014 94.387024,436.240387 94.182198,432.496368 
	C94.135185,431.637054 92.982132,430.838287 92.338089,430.011658 
	C92.250175,431.029175 92.162262,432.046692 92.077866,433.931580 
M402.272278,439.109131 
	C402.272461,430.374695 402.272461,430.374695 400.205902,430.556976 
	C400.205902,434.987091 400.205902,439.357758 400.205902,443.728424 
	C400.744751,443.761078 401.283569,443.793762 401.822418,443.826447 
	C401.972229,442.541534 402.122070,441.256592 402.272278,439.109131 
M339.935944,440.428772 
	C340.151367,441.589722 340.366760,442.750671 340.582153,443.911621 
	C343.279785,434.047852 342.011780,432.568207 332.132416,434.159576 
	C333.835205,434.893494 334.963379,435.824493 335.541168,435.558777 
	C340.383972,433.331421 339.884155,436.705383 339.935944,440.428772 
M199.619217,433.542175 
	C199.619217,436.990082 199.619217,440.437988 199.619217,443.885895 
	C200.155609,443.921143 200.692001,443.956421 201.228394,443.991669 
	C201.628281,440.747223 202.089569,437.507294 202.330292,434.251068 
	C202.353622,433.935669 201.011536,433.519379 199.619217,433.542175 
M162.278091,443.572113 
	C162.446976,440.088135 162.615860,436.604187 162.784744,433.120209 
	C161.821640,433.176849 160.858521,433.233521 159.895401,433.290161 
	C160.429565,436.825195 160.963715,440.360260 162.278091,443.572113 
M123.392426,443.482513 
	C123.392426,443.482513 123.461769,443.521576 123.392426,443.482513 
M431.468811,443.485352 
	C431.468811,443.485352 431.406189,443.469849 431.468811,443.485352 
M495.527802,443.513580 
	C495.527802,443.513580 495.464813,443.477631 495.527802,443.513580 
z"/>
<path fill="#308ECD" opacity="1.000000" stroke="none" 
	d="
M58.422108,264.628143 
	C71.735085,272.229797 85.390625,279.003937 100.314278,282.976440 
	C127.307030,290.161530 154.716797,291.106812 181.998596,286.358459 
	C206.199860,282.146271 229.988495,275.619904 254.069519,270.649200 
	C316.127686,257.839355 377.408691,259.221954 437.263672,282.010956 
	C445.316772,285.077026 452.966309,289.210999 460.767029,292.925476 
	C462.331238,293.670258 463.733032,294.756104 464.873810,296.318420 
	C455.423584,294.363495 446.016724,292.161133 436.515533,290.497253 
	C398.942993,283.917572 361.159149,282.649750 323.120789,285.524994 
	C288.790222,288.119873 255.476883,295.907104 222.015793,303.325745 
	C187.126373,311.061066 152.061935,312.228271 117.311340,302.034607 
	C94.336357,295.295166 74.149223,283.860992 58.167229,265.262787 
	C58.183655,264.837158 58.422108,264.628143 58.422108,264.628143 
z"/>
<path fill="#261F57" opacity="1.000000" stroke="none" 
	d="
M180.416168,237.428558 
	C173.453583,245.073181 166.769272,252.494232 159.978195,259.816254 
	C158.929550,260.946899 157.400146,262.377777 156.077484,262.393921 
	C141.142792,262.576294 126.205040,262.509430 109.985741,262.509430 
	C116.055206,255.749161 121.289215,249.861740 126.584862,244.030304 
	C165.302490,201.395248 204.051483,158.788635 242.706482,116.096886 
	C244.796967,113.788086 246.856705,112.886909 249.953308,112.923256 
	C264.086792,113.089119 278.223297,112.996056 293.441833,112.996056 
	C255.453751,154.821976 218.056610,195.997269 180.416168,237.428558 
z"/>
<path fill="#0E7545" opacity="1.000000" stroke="none" 
	d="
M123.104294,212.106537 
	C108.655350,228.024338 94.520142,243.748383 80.129868,259.235413 
	C78.476105,261.015228 75.463310,262.169830 72.969131,262.398590 
	C67.754532,262.876862 62.465488,262.543488 56.087898,262.543488 
	C65.595772,252.043991 74.261963,242.446259 82.958069,232.875717 
	C118.446495,193.818787 153.923737,154.751572 189.516693,115.790092 
	C190.860962,114.318611 193.315231,113.252190 195.327408,113.117149 
	C200.766205,112.752167 206.245621,112.992172 213.095184,112.992172 
	C182.664673,146.507065 153.003448,179.174683 123.104294,212.106537 
z"/>
<path fill="#2A2559" opacity="1.000000" stroke="none" 
	d="
M352.450989,378.999817 
	C352.451080,366.205231 352.451080,353.910706 352.451080,340.483246 
	C362.206726,341.077515 371.689514,340.920013 380.893616,342.444672 
	C388.479431,343.701233 392.597656,349.782990 393.733185,357.299500 
	C394.900574,365.026611 393.149109,371.904388 386.246368,376.595398 
	C384.618042,377.701965 382.792603,378.518494 380.838745,379.588440 
	C386.181366,389.576233 391.482971,399.487305 397.114136,410.014496 
	C392.779663,410.014496 389.004730,410.283295 385.303802,409.877411 
	C383.894135,409.722809 382.166718,408.296356 381.417664,406.976471 
	C377.157684,399.469971 373.157959,391.816040 369.047272,384.224365 
	C368.437408,383.098114 367.708588,382.036194 366.019104,381.044647 
	C366.019104,390.464569 366.019104,399.884491 366.019104,409.653259 
	C361.220154,409.653259 357.159760,409.653259 352.450897,409.653259 
	C352.450897,399.688141 352.450897,389.593994 352.450989,378.999817 
M369.566498,353.822113 
	C367.775360,353.995911 365.351044,353.010834 365.445068,356.384857 
	C365.549805,360.144104 365.469086,363.908539 365.469086,368.223511 
	C369.241516,367.931793 372.515320,367.870331 375.723511,367.379822 
	C379.350677,366.825226 381.153748,364.441437 380.987000,360.759613 
	C380.812408,356.905487 378.593994,354.741028 374.915802,354.076141 
	C373.467041,353.814270 371.956116,353.896606 369.566498,353.822113 
z"/>
<path fill="#272256" opacity="1.000000" stroke="none" 
	d="
M476.824829,399.045715 
	C475.402557,397.715485 474.127777,396.020630 472.793335,395.972260 
	C465.476379,395.707031 458.138306,395.684753 450.823730,395.980774 
	C449.359985,396.040039 447.952271,397.821289 446.555450,398.857971 
	C446.326843,399.027618 446.283478,399.452515 446.164185,399.763184 
	C441.796204,411.137512 441.796387,411.137573 428.551483,409.563995 
	C431.320770,402.354797 434.065033,395.270050 436.765411,388.168671 
	C442.250885,373.743256 447.789001,359.336914 453.120239,344.854492 
	C454.197021,341.929352 455.568787,340.836761 458.807434,340.897339 
	C468.548462,341.079468 468.523163,340.921570 472.096680,350.301636 
	C478.894653,368.145752 485.734222,385.973999 492.539093,403.815491 
	C493.237366,405.646210 493.817230,407.522125 494.575470,409.737823 
	C493.603455,409.856506 493.010925,409.981659 492.416138,409.993713 
	C481.033600,410.225006 481.033539,410.222260 476.824829,399.045715 
M457.209198,370.725555 
	C455.737030,374.681427 454.264832,378.637299 452.729553,382.762726 
	C458.864105,382.762726 464.412964,382.762726 470.536926,382.762726 
	C468.991577,378.697540 467.605042,375.025543 466.199890,371.360657 
	C464.766174,367.621277 463.314240,363.888916 461.592438,359.434753 
	C460.010437,363.556549 458.770142,366.788116 457.209198,370.725555 
z"/>
<path fill="#252055" opacity="1.000000" stroke="none" 
	d="
M172.762238,341.090210 
	C189.070251,342.437439 196.522781,351.185150 194.055252,365.477112 
	C192.810547,372.686462 187.865082,376.551453 181.306137,379.493164 
	C186.644440,389.512604 191.907913,399.391571 197.561218,410.002228 
	C193.110153,410.002228 189.347153,410.225555 185.637283,409.879425 
	C184.361954,409.760468 182.759827,408.477417 182.090851,407.286011 
	C177.863159,399.756897 173.869919,392.096375 169.762115,384.499359 
	C169.045074,383.173248 168.151886,381.942413 167.340057,380.667572 
	C166.940414,380.802582 166.540787,380.937561 166.141144,381.072571 
	C166.141144,390.581421 166.141144,400.090271 166.141144,409.794556 
	C161.641861,409.794556 157.690903,409.794556 153.367126,409.794556 
	C153.367126,387.195221 153.367126,364.471222 153.367126,341.053680 
	C159.473999,341.053680 165.883835,341.053680 172.762238,341.090210 
M167.634674,367.993164 
	C170.110367,367.908905 172.611267,368.016815 175.055969,367.696259 
	C178.905426,367.191528 181.629379,365.267120 181.455643,360.946228 
	C181.282562,356.641663 178.855423,354.270660 174.576126,354.023590 
	C171.836395,353.865387 169.080124,353.993927 165.690155,353.993927 
	C166.044662,358.887238 166.371414,363.397644 167.634674,367.993164 
z"/>
<path fill="#2D285B" opacity="1.000000" stroke="none" 
	d="
M325.006897,366.137146 
	C329.973541,366.137146 334.444672,366.137146 339.236694,366.137146 
	C339.236694,370.535339 339.236694,374.599640 339.236694,378.995605 
	C331.095093,378.995605 323.152863,378.995605 314.888855,378.995605 
	C314.888855,385.038300 314.888855,390.763397 314.888855,397.030762 
	C322.860260,397.030762 330.924652,397.030762 339.269958,397.030762 
	C339.269958,401.487366 339.269958,405.412476 339.269958,409.682129 
	C326.859039,409.682129 314.471710,409.682129 301.760254,409.682129 
	C301.760254,387.061981 301.760254,364.347229 301.760254,341.304871 
	C314.164062,341.304871 326.555725,341.304871 339.255554,341.304871 
	C339.255554,345.290253 339.255554,349.352539 339.255554,353.806854 
	C331.075226,353.806854 323.150574,353.806854 314.896881,353.806854 
	C314.896881,357.922272 314.896881,361.666168 314.896881,366.137146 
	C317.998840,366.137146 321.255127,366.137146 325.006897,366.137146 
z"/>
<path fill="#272256" opacity="1.000000" stroke="none" 
	d="
M283.169250,340.992126 
	C285.946228,340.992126 288.266296,340.992126 291.266541,340.992126 
	C289.300812,346.618317 287.522614,351.857880 285.642609,357.060669 
	C279.890411,372.979431 273.878143,388.809479 268.468536,404.843262 
	C267.000732,409.193817 265.007812,410.670685 260.734222,410.055634 
	C258.781769,409.774689 256.755310,410.007874 254.235855,410.007874 
	C246.021332,387.207886 237.789963,364.361145 229.432693,341.164978 
	C234.172302,341.164978 238.297699,341.164978 242.764954,341.164978 
	C248.475388,356.968323 254.209808,372.838043 260.364990,389.872162 
	C266.508606,372.929016 272.268097,357.045349 278.089020,340.992126 
	C279.752686,340.992126 281.232513,340.992126 283.169250,340.992126 
z"/>
<path fill="#2A2558" opacity="1.000000" stroke="none" 
	d="
M77.010849,360.888977 
	C88.782196,355.457062 94.845276,356.559509 109.563622,366.795074 
	C109.719574,364.160828 109.860893,361.773621 110.013512,359.195709 
	C111.996849,359.195709 113.770851,359.195709 115.865479,359.195709 
	C115.865479,375.944305 115.865479,392.677826 115.865479,409.713196 
	C114.025757,409.713196 112.128883,409.713196 109.965515,409.713196 
	C109.965515,407.361511 109.965515,405.085205 109.965515,402.162262 
	C108.870041,402.813934 108.166893,403.090057 107.643501,403.564514 
	C95.687263,414.401642 79.643967,413.769440 69.607132,402.043304 
	C59.547886,390.290985 61.417511,372.746918 73.783249,363.010529 
	C74.695854,362.291992 75.707741,361.699524 77.010849,360.888977 
M108.825829,377.112823 
	C102.930267,364.747314 90.938454,360.243469 80.095406,366.322327 
	C69.913879,372.030334 66.752998,385.573120 73.191917,395.900238 
	C78.331520,404.143402 88.774323,407.455811 97.681595,403.668182 
	C107.614281,399.444580 111.970665,389.532623 108.825829,377.112823 
z"/>
<path fill="#272256" opacity="1.000000" stroke="none" 
	d="
M206.889725,408.811188 
	C206.837799,386.070953 206.837799,363.814026 206.837799,341.274780 
	C211.164307,341.274780 215.228546,341.274780 219.571259,341.274780 
	C219.571259,364.050171 219.571259,386.738922 219.571259,410.240967 
	C215.276520,409.919098 211.109085,409.606781 206.889725,408.811188 
z"/>
<path fill="#272256" opacity="1.000000" stroke="none" 
	d="
M406.153870,357.003296 
	C406.153870,351.543304 406.153870,346.582367 406.153870,341.309204 
	C410.513062,341.309204 414.565826,341.309204 418.901428,341.309204 
	C418.901428,364.017395 418.901428,386.709137 418.901428,409.705261 
	C414.882050,409.705261 410.815918,409.705261 406.153839,409.705261 
	C406.153839,392.295044 406.153839,374.898682 406.153870,357.003296 
z"/>
<path fill="#2B275A" opacity="1.000000" stroke="none" 
	d="
M22.141258,378.999939 
	C22.141264,366.217316 22.141264,353.934692 22.141264,341.318176 
	C24.479462,341.318176 26.535042,341.318176 29.021393,341.318176 
	C29.021393,361.616882 29.021393,381.989288 29.021393,402.882996 
	C37.966991,402.882996 46.517265,402.882996 55.458225,402.882996 
	C55.458225,405.424988 55.458225,407.451721 55.458225,409.752991 
	C44.586361,409.752991 33.680286,409.752991 22.141251,409.752991 
	C22.141251,399.660431 22.141251,389.580200 22.141258,378.999939 
z"/>
<path fill="#2B255B" opacity="1.000000" stroke="none" 
	d="
M290.550842,249.955475 
	C290.550751,253.073135 290.550751,255.707458 290.550751,258.677185 
	C283.541412,258.677185 276.845520,258.677185 270.047913,258.677185 
	C270.047913,251.929398 270.047913,245.178040 270.047913,238.393417 
	C276.873779,238.393417 283.449188,238.393417 290.550903,238.393417 
	C290.550903,242.242767 290.550903,245.857452 290.550842,249.955475 
z"/>
<path fill="#2E275D" opacity="1.000000" stroke="none" 
	d="
M271.578979,206.158691 
	C277.994659,206.142822 283.957550,206.142822 290.238007,206.142822 
	C290.238007,213.036530 290.238007,219.605850 290.238007,226.520020 
	C283.607727,226.520020 277.051056,226.520020 269.274933,226.520020 
	C269.889557,219.765182 270.507874,212.969864 271.578979,206.158691 
z"/>
<path fill="#2B255B" opacity="1.000000" stroke="none" 
	d="
M235.983887,248.018951 
	C235.983887,244.573914 235.983887,241.619476 235.983887,238.408234 
	C242.932861,238.408234 249.473724,238.408234 256.283173,238.408234 
	C256.283173,245.211761 256.283173,251.792786 256.283173,258.696106 
	C249.671234,258.696106 243.128571,258.696106 235.983887,258.696106 
	C235.983887,255.363953 235.983887,251.936768 235.983887,248.018951 
z"/>
<path fill="#2E275D" opacity="1.000000" stroke="none" 
	d="
M235.978683,219.914719 
	C235.978683,215.147934 235.978683,210.868759 235.978683,206.426468 
	C237.056381,206.296555 237.683289,206.157135 238.310593,206.155319 
	C244.121796,206.138474 249.933075,206.145370 256.151825,206.145370 
	C256.151825,213.045135 256.151825,219.728287 256.151825,226.639587 
	C249.566940,226.639587 243.141998,226.639587 235.978683,226.639587 
	C235.978683,224.561066 235.978683,222.481689 235.978683,219.914719 
z"/>
<path fill="#338A62" opacity="1.000000" stroke="none" 
	d="
M462.054779,442.651245 
	C461.247070,442.412781 460.333893,441.883148 459.672028,441.132019 
	C458.577179,439.889496 457.644348,438.504242 456.643280,437.179138 
	C456.222809,437.402313 455.802338,437.625519 455.381897,437.848694 
	C455.075958,439.815521 454.770020,441.782349 454.464081,443.749207 
	C453.938385,443.762024 453.412720,443.774872 452.887054,443.787689 
	C452.887054,439.284821 452.634827,434.753113 453.142334,430.308197 
	C453.224243,429.590942 456.687592,429.259735 458.067383,428.889679 
	C459.549225,433.849426 460.805725,438.054962 462.054779,442.651245 
z"/>
<path fill="#559D7C" opacity="1.000000" stroke="none" 
	d="
M108.135071,433.020081 
	C113.879860,433.597198 115.420250,437.661804 111.765396,443.948395 
	C111.562401,441.881409 111.544014,439.771667 111.079788,437.765137 
	C110.841858,436.736694 109.806946,435.892639 109.132225,434.965271 
	C108.372780,435.853760 107.184387,436.640808 106.945236,437.652313 
	C106.480148,439.619476 106.547531,441.712555 106.346481,444.391266 
	C103.705727,441.165588 103.454269,433.472015 105.521111,428.191010 
	C106.372955,430.089813 107.042679,431.582642 108.135071,433.020081 
z"/>
<path fill="#4D9876" opacity="1.000000" stroke="none" 
	d="
M361.138794,431.790588 
	C362.099792,431.292236 363.060791,430.793854 364.005615,430.303894 
	C368.892792,440.961456 368.891602,441.194244 363.122131,443.686523 
	C361.833008,443.049164 360.455902,442.689331 360.464996,442.368866 
	C360.565308,438.839264 360.881287,435.315735 361.138794,431.790588 
z"/>
<path fill="#559D7C" opacity="1.000000" stroke="none" 
	d="
M309.501160,439.387085 
	C311.178497,438.196869 312.505981,437.123047 314.388397,435.600311 
	C312.371033,435.214996 310.794220,434.913818 309.217438,434.612671 
	C309.216919,434.240356 309.216431,433.868042 309.215942,433.495728 
	C311.102234,433.495728 314.272369,432.856232 314.647339,433.609039 
	C316.090424,436.506042 316.638824,439.848755 316.906158,443.356232 
	C313.833374,442.360504 308.307953,447.042389 309.501160,439.387085 
z"/>
<path fill="#479571" opacity="1.000000" stroke="none" 
	d="
M279.690552,436.560425 
	C277.733643,438.023499 275.626465,439.100800 272.691772,440.601135 
	C274.645599,441.324677 276.663910,442.072113 279.010498,442.941101 
	C276.089844,444.677307 273.318176,444.695740 271.396149,441.967194 
	C269.319489,439.019104 269.842896,435.719635 272.856171,433.694031 
	C275.759247,431.742584 278.197968,432.942261 279.690552,436.560425 
z"/>
<path fill="#559D7C" opacity="1.000000" stroke="none" 
	d="
M36.501091,439.387085 
	C38.178513,438.196899 39.506073,437.123077 41.388550,435.600372 
	C39.373569,435.215515 37.800323,434.915009 36.227077,434.614502 
	C36.223362,434.241547 36.219646,433.868591 36.215935,433.495636 
	C38.102200,433.495636 41.272278,432.856110 41.647301,433.608917 
	C43.090427,436.505920 43.638878,439.848633 43.906254,443.356110 
	C40.833347,442.360535 35.308075,447.042328 36.501091,439.387085 
z"/>
<path fill="#559D7C" opacity="1.000000" stroke="none" 
	d="
M421.828064,439.119812 
	C421.650604,441.029480 421.472534,442.520111 421.294464,444.010773 
	C420.756012,443.999908 420.217560,443.989044 419.679108,443.978180 
	C419.509277,442.332703 419.569061,440.618469 419.102661,439.061829 
	C418.667999,437.611145 417.673645,436.328156 416.925690,434.971344 
	C416.227631,436.261108 415.283691,437.481537 414.895660,438.858673 
	C414.441406,440.470795 414.471344,442.219391 414.291260,443.908783 
	C413.817017,443.868500 413.342804,443.828217 412.868591,443.787964 
	C412.868591,438.778595 412.868591,433.769226 412.868591,428.759857 
	C413.254639,428.722717 413.640717,428.685547 414.026764,428.648407 
	C414.364868,430.149384 414.703003,431.650360 415.079010,433.319550 
	C419.847992,431.893677 421.857910,434.050354 421.828064,439.119812 
z"/>
<path fill="#328961" opacity="1.000000" stroke="none" 
	d="
M227.919617,434.117493 
	C228.011246,432.204437 228.102890,430.766937 228.193237,429.349701 
	C230.964661,429.349701 233.358536,429.349701 235.752411,429.349701 
	C235.810410,429.689545 235.868393,430.029388 235.926392,430.369202 
	C234.373550,430.680267 232.820694,430.991333 231.223770,431.311249 
	C228.822403,436.535248 234.246521,434.586304 236.799591,436.624786 
	C234.186020,436.896698 232.537659,437.068176 230.480133,437.282257 
	C230.480133,438.659210 230.480133,440.154816 230.480133,441.768555 
	C232.280746,441.982117 234.026733,442.189209 235.772705,442.396301 
	C235.796799,442.794586 235.820908,443.192841 235.845001,443.591095 
	C233.487228,443.746033 231.129471,443.900940 227.919601,444.111847 
	C227.919601,440.734039 227.919601,437.663544 227.919617,434.117493 
z"/>
<path fill="#248156" opacity="1.000000" stroke="none" 
	d="
M189.092484,444.042969 
	C184.238266,443.575989 183.373428,440.732483 183.966400,436.915344 
	C184.535599,433.251312 187.466782,433.508484 189.719467,434.117188 
	C191.267273,434.535492 192.401108,436.485748 194.727356,438.717834 
	C190.652802,438.959229 188.375427,439.094147 186.098068,439.229065 
	C185.931473,439.685974 185.764877,440.142883 185.598282,440.599792 
	C187.634674,441.380371 189.671082,442.160980 192.099457,443.091858 
	C191.113251,443.451263 190.303070,443.746552 189.092484,444.042969 
z"/>
<path fill="#248156" opacity="1.000000" stroke="none" 
	d="
M69.302925,444.021484 
	C64.935303,443.020477 64.364960,440.200348 65.004768,436.745178 
	C65.671051,433.147034 68.626907,433.548767 70.807579,434.123993 
	C72.316444,434.522034 73.407990,436.501984 75.664474,438.749756 
	C71.671379,438.965942 69.415947,439.088043 67.160522,439.210144 
	C66.986412,439.647064 66.812302,440.083984 66.638191,440.520905 
	C68.626938,441.351501 70.615692,442.182129 73.140427,443.236572 
	C71.865517,443.535431 70.780594,443.789734 69.302925,444.021484 
z"/>
<path fill="#358B63" opacity="1.000000" stroke="none" 
	d="
M149.386383,432.743958 
	C150.292236,434.539032 150.880249,436.060638 151.613998,437.959351 
	C149.600189,437.959351 148.505707,437.959351 147.141281,437.959351 
	C146.808136,439.951996 146.481400,441.906281 146.154663,443.860535 
	C145.747833,443.829498 145.341003,443.798462 144.934174,443.767395 
	C144.934174,439.186310 144.934174,434.605194 144.934174,429.335388 
	C146.685898,430.663696 147.877228,431.567078 149.386383,432.743958 
z"/>
<path fill="#338A62" opacity="1.000000" stroke="none" 
	d="
M28.810566,442.051727 
	C26.235519,442.982391 23.882177,443.606903 21.528837,444.231384 
	C21.411695,443.583893 21.294554,442.936371 21.177410,442.288879 
	C21.823048,442.235413 22.511665,442.307159 23.105669,442.103241 
	C24.485903,441.629425 25.820505,441.022675 27.173603,440.469788 
	C26.231619,439.313782 25.277653,438.167297 24.350697,436.999390 
	C23.204147,435.554810 21.706551,434.223022 21.129513,432.573547 
	C20.897755,431.911041 22.709009,430.533844 24.427446,429.578735 
	C21.474516,432.976227 23.478434,434.382507 26.042295,435.550751 
	C28.780962,436.798706 30.397636,438.539764 28.810566,442.051727 
z"/>
<path fill="#30885F" opacity="1.000000" stroke="none" 
	d="
M493.967712,442.441711 
	C493.402710,440.439972 492.495880,437.968323 492.931244,435.761414 
	C493.108551,434.862457 496.329895,433.849365 497.926514,434.152191 
	C499.429901,434.437439 500.617859,436.385498 501.536285,437.227570 
	C499.723480,441.314911 493.760712,435.664917 493.967712,442.441711 
z"/>
<path fill="#30885F" opacity="1.000000" stroke="none" 
	d="
M437.191681,437.314270 
	C435.099701,438.370300 432.957642,439.040894 430.256470,439.886536 
	C430.197815,440.393341 430.058197,441.599274 429.918549,442.805206 
	C429.641663,442.857300 429.364777,442.909393 429.087891,442.961456 
	C428.713318,441.325134 427.720032,439.509155 428.129059,438.100342 
	C428.585419,436.528534 430.091675,434.571564 431.544067,434.140503 
	C433.728638,433.492188 436.711914,433.170471 437.191681,437.314270 
z"/>
<path fill="#30885F" opacity="1.000000" stroke="none" 
	d="
M120.830643,442.069550 
	C119.377258,436.403656 120.333839,434.378479 124.162827,433.934479 
	C127.705475,433.523743 129.505096,434.790497 129.085938,438.880310 
	C126.996735,438.980164 124.901337,439.080353 122.460602,439.197021 
	C122.262939,440.299866 122.051788,441.487610 121.821648,442.671600 
	C121.818130,442.689728 121.572762,442.685852 121.452805,442.650116 
	C121.296219,442.603455 121.152176,442.514679 120.830643,442.069550 
z"/>
<path fill="#388D66" opacity="1.000000" stroke="none" 
	d="
M481.166931,443.698792 
	C479.443359,440.215759 478.054047,436.885712 476.664764,433.555695 
	C477.216797,433.320343 477.768860,433.084991 478.320923,432.849670 
	C479.364136,435.193481 480.407349,437.537292 481.648621,440.326172 
	C482.841980,437.635742 483.852692,435.357056 484.863403,433.078400 
	C485.435974,433.330261 486.008545,433.582153 486.581116,433.834045 
	C484.887817,437.173309 483.194489,440.512573 481.166931,443.698792 
z"/>
<path fill="#30885F" opacity="1.000000" stroke="none" 
	d="
M300.282684,432.137695 
	C300.556610,436.193970 300.824036,439.868713 301.117859,443.906158 
	C301.727386,443.906158 300.842651,444.160309 300.222076,443.863007 
	C297.249725,442.438965 296.466003,432.444519 299.163971,430.631561 
	C299.245819,430.576508 299.892731,431.362366 300.282684,432.137695 
z"/>
<path fill="#30885F" opacity="1.000000" stroke="none" 
	d="
M258.998901,434.200867 
	C259.691833,432.678680 260.429047,431.497711 261.657318,429.530060 
	C262.268890,434.858551 262.773987,439.259125 263.324585,444.056335 
	C261.340698,444.475525 260.316956,442.912018 260.042053,440.163116 
	C259.853241,438.275024 259.385986,436.414764 258.998901,434.200867 
z"/>
<path fill="#30885F" opacity="1.000000" stroke="none" 
	d="
M378.918915,443.420593 
	C377.569427,445.346161 376.340363,446.952393 374.395599,449.494049 
	C375.086182,445.698669 376.065277,443.261627 375.802582,440.966736 
	C375.517212,438.474304 374.076782,436.114105 373.140015,433.696228 
	C373.541595,433.460938 373.943207,433.225616 374.344818,432.990295 
	C375.015137,434.179626 375.543732,435.484741 376.394897,436.526276 
	C377.278900,437.607971 378.871216,438.252991 379.410828,439.429718 
	C379.852997,440.394012 379.204407,441.858521 378.918915,443.420593 
z"/>
<path fill="#388D66" opacity="1.000000" stroke="none" 
	d="
M53.444336,443.420410 
	C51.981701,440.014679 50.793453,436.859283 49.605202,433.703888 
	C50.063141,433.493073 50.521084,433.282257 50.979027,433.071442 
	C52.081074,435.313995 53.183125,437.556519 54.461212,440.157288 
	C55.634388,437.583191 56.698376,435.248657 57.762363,432.914124 
	C58.388325,433.241669 59.014286,433.569244 59.640247,433.896790 
	C57.666405,437.154785 55.692562,440.412781 53.444336,443.420410 
z"/>
<path fill="#388D66" opacity="1.000000" stroke="none" 
	d="
M171.139557,440.768616 
	C170.231277,438.156494 169.459290,435.898041 168.687302,433.639618 
	C169.125885,433.443542 169.564468,433.247498 170.003052,433.051453 
	C171.095169,435.310913 172.187286,437.570343 173.457901,440.199066 
	C174.642532,437.584686 175.703308,435.243622 176.764099,432.902527 
	C177.245529,433.113617 177.726974,433.324707 178.208405,433.535797 
	C176.878738,437.010132 175.549088,440.484436 173.763977,445.148804 
	C172.496323,443.097351 171.886093,442.109833 171.139557,440.768616 
z"/>
<path fill="#2A845B" opacity="1.000000" stroke="none" 
	d="
M92.076111,433.497894 
	C92.162262,432.046692 92.250175,431.029175 92.338089,430.011658 
	C92.982132,430.838287 94.135185,431.637054 94.182198,432.496368 
	C94.387024,436.240387 94.270203,440.002014 94.270203,443.757233 
	C93.539421,443.752472 92.808647,443.747742 92.077866,443.743011 
	C92.077866,440.472534 92.077866,437.202057 92.076111,433.497894 
z"/>
<path fill="#2A845B" opacity="1.000000" stroke="none" 
	d="
M402.272095,439.540405 
	C402.122070,441.256592 401.972229,442.541534 401.822418,443.826447 
	C401.283569,443.793762 400.744751,443.761078 400.205902,443.728424 
	C400.205902,439.357758 400.205902,434.987091 400.205902,430.556976 
	C402.272461,430.374695 402.272461,430.374695 402.272095,439.540405 
z"/>
<path fill="#207E53" opacity="1.000000" stroke="none" 
	d="
M361.076721,431.386658 
	C360.881287,435.315735 360.565308,438.839264 360.464996,442.368866 
	C360.455902,442.689331 361.833008,443.049164 362.759155,443.646423 
	C361.499329,443.902130 360.046661,443.902130 358.112457,443.902130 
	C358.112457,439.755768 358.031281,435.835022 358.140900,431.919586 
	C358.214386,429.295410 359.443604,429.423187 361.076721,431.386658 
z"/>
<path fill="#2A845B" opacity="1.000000" stroke="none" 
	d="
M339.935822,439.997925 
	C339.884155,436.705383 340.383972,433.331421 335.541168,435.558777 
	C334.963379,435.824493 333.835205,434.893494 332.132416,434.159576 
	C342.011780,432.568207 343.279785,434.047852 340.582153,443.911621 
	C340.366760,442.750671 340.151367,441.589722 339.935822,439.997925 
z"/>
<path fill="#559D7C" opacity="1.000000" stroke="none" 
	d="
M246.830002,433.488770 
	C250.382111,431.879456 252.181671,433.596405 252.666840,436.905579 
	C252.999054,439.171417 252.730484,441.525360 252.730484,443.839905 
	C252.110870,443.880768 251.491272,443.921631 250.871658,443.962463 
	C250.637558,442.263489 250.622849,440.493622 250.103699,438.886719 
	C249.643906,437.463501 248.623001,436.221588 247.388062,434.554199 
	C246.894226,433.968750 246.862122,433.728760 246.830002,433.488770 
z"/>
<path fill="#529B7A" opacity="1.000000" stroke="none" 
	d="
M199.961243,433.346069 
	C201.011536,433.519379 202.353622,433.935669 202.330292,434.251068 
	C202.089569,437.507294 201.628281,440.747223 201.228394,443.991669 
	C200.692001,443.956421 200.155609,443.921143 199.619217,443.885895 
	C199.619217,440.437988 199.619217,436.990082 199.961243,433.346069 
z"/>
<path fill="#529B7A" opacity="1.000000" stroke="none" 
	d="
M246.475708,433.558777 
	C246.862122,433.728760 246.894226,433.968750 246.961029,434.570282 
	C246.317215,437.936554 245.638718,440.941315 244.960236,443.946045 
	C244.461319,443.931274 243.962418,443.916534 243.463516,443.901764 
	C243.463516,440.521179 243.445786,437.139893 243.574524,433.764221 
	C243.577484,433.686829 245.235443,433.672546 246.475708,433.558777 
z"/>
<path fill="#5AA080" opacity="1.000000" stroke="none" 
	d="
M161.887985,443.733704 
	C160.963715,440.360260 160.429565,436.825195 159.895401,433.290161 
	C160.858521,433.233521 161.821640,433.176849 162.784744,433.120209 
	C162.615860,436.604187 162.446976,440.088135 161.887985,443.733704 
z"/>
<path fill="#308ECD" opacity="1.000000" stroke="none" 
	d="
M58.065029,264.942352 
	C57.763161,264.794281 57.579914,264.541016 57.396667,264.287781 
	C57.633202,264.269196 57.869740,264.250641 58.264194,264.430115 
	C58.422108,264.628143 58.183655,264.837158 58.065029,264.942352 
z"/>
<path fill="#30885F" opacity="1.000000" stroke="none" 
	d="
M123.427094,443.502045 
	C123.461769,443.521576 123.392426,443.482513 123.427094,443.502045 
z"/>
<path fill="#30885F" opacity="1.000000" stroke="none" 
	d="
M431.437500,443.477600 
	C431.406189,443.469849 431.468811,443.485352 431.437500,443.477600 
z"/>
<path fill="#30885F" opacity="1.000000" stroke="none" 
	d="
M495.496307,443.495605 
	C495.464813,443.477631 495.527802,443.513580 495.496307,443.495605 
z"/>
<path fill="#F4F3F6" opacity="1.000000" stroke="none" 
	d="
M370.019989,353.822144 
	C371.956116,353.896606 373.467041,353.814270 374.915802,354.076141 
	C378.593994,354.741028 380.812408,356.905487 380.987000,360.759613 
	C381.153748,364.441437 379.350677,366.825226 375.723511,367.379822 
	C372.515320,367.870331 369.241516,367.931793 365.469086,368.223511 
	C365.469086,363.908539 365.549805,360.144104 365.445068,356.384857 
	C365.351044,353.010834 367.775360,353.995911 370.019989,353.822144 
z"/>
<path fill="#F9F9FA" opacity="1.000000" stroke="none" 
	d="
M457.369507,370.372620 
	C458.770142,366.788116 460.010437,363.556549 461.592438,359.434753 
	C463.314240,363.888916 464.766174,367.621277 466.199890,371.360657 
	C467.605042,375.025543 468.991577,378.697540 470.536926,382.762726 
	C464.412964,382.762726 458.864105,382.762726 452.729553,382.762726 
	C454.264832,378.637299 455.737030,374.681427 457.369507,370.372620 
z"/>
<path fill="#FBFBFC" opacity="1.000000" stroke="none" 
	d="
M167.166428,367.950623 
	C166.371414,363.397644 166.044662,358.887238 165.690155,353.993927 
	C169.080124,353.993927 171.836395,353.865387 174.576126,354.023590 
	C178.855423,354.270660 181.282562,356.641663 181.455643,360.946228 
	C181.629379,365.267120 178.905426,367.191528 175.055969,367.696259 
	C172.611267,368.016815 170.110367,367.908905 167.166428,367.950623 
z"/>
<path fill="#FDFDFD" opacity="1.000000" stroke="none" 
	d="
M108.916527,377.506134 
	C111.970665,389.532623 107.614281,399.444580 97.681595,403.668182 
	C88.774323,407.455811 78.331520,404.143402 73.191917,395.900238 
	C66.752998,385.573120 69.913879,372.030334 80.095406,366.322327 
	C90.938454,360.243469 102.930267,364.747314 108.916527,377.506134 
z"/>
</svg>