<?xml version="1.0" encoding="UTF-8"?>
<!DOCTYPE svg PUBLIC "-//W3C//DTD SVG 1.1//EN" "http://www.w3.org/Graphics/SVG/1.1/DTD/svg11.dtd">
<svg xmlns="http://www.w3.org/2000/svg" version="1.1" width="517px" height="517px" style="shape-rendering:geometricPrecision; text-rendering:geometricPrecision; image-rendering:optimizeQuality; fill-rule:evenodd; clip-rule:evenodd" xmlns:xlink="http://www.w3.org/1999/xlink">
<g><path style="opacity:1" fill="#fefefe" d="M -0.5,-0.5 C 171.833,-0.5 344.167,-0.5 516.5,-0.5C 516.5,171.833 516.5,344.167 516.5,516.5C 344.167,516.5 171.833,516.5 -0.5,516.5C -0.5,344.167 -0.5,171.833 -0.5,-0.5 Z"/></g>
<g><path style="opacity:1" fill="#127445" d="M 56.5,261.5 C 55.8333,261.5 55.1667,261.5 54.5,261.5C 99.1084,211.554 144.108,161.888 189.5,112.5C 196.811,111.335 204.144,111.169 211.5,112C 166.15,161.216 121.15,210.716 76.5,260.5C 69.8665,261.497 63.1998,261.83 56.5,261.5 Z"/></g>
<g><path style="opacity:1" fill="#251e56" d="M 243.5,111.5 C 259.503,111.333 275.503,111.5 291.5,112C 247.018,161.316 202.351,210.483 157.5,259.5C 141.51,260.666 125.51,260.833 109.5,260C 154.374,210.629 199.04,161.129 243.5,111.5 Z"/></g>
<g><path style="opacity:1" fill="#241d55" d="M 234.5,205.5 C 241.167,205.5 247.833,205.5 254.5,205.5C 254.5,211.833 254.5,218.167 254.5,224.5C 247.833,224.5 241.167,224.5 234.5,224.5C 234.5,218.167 234.5,211.833 234.5,205.5 Z"/></g>
<g><path style="opacity:1" fill="#777296" d="M 234.5,205.5 C 241.313,204.509 248.313,204.175 255.5,204.5C 255.5,211.5 255.5,218.5 255.5,225.5C 248.313,225.825 241.313,225.491 234.5,224.5C 241.167,224.5 247.833,224.5 254.5,224.5C 254.5,218.167 254.5,211.833 254.5,205.5C 247.833,205.5 241.167,205.5 234.5,205.5 Z"/></g>
<g><path style="opacity:1" fill="#241d55" d="M 268.5,205.5 C 275.167,205.5 281.833,205.5 288.5,205.5C 288.5,211.833 288.5,218.167 288.5,224.5C 281.833,224.5 275.167,224.5 268.5,224.5C 268.5,218.167 268.5,211.833 268.5,205.5 Z"/></g>
<g><path style="opacity:1" fill="#777296" d="M 268.5,205.5 C 275.313,204.509 282.313,204.175 289.5,204.5C 289.5,211.5 289.5,218.5 289.5,225.5C 282.313,225.825 275.313,225.491 268.5,224.5C 275.167,224.5 281.833,224.5 288.5,224.5C 288.5,218.167 288.5,211.833 288.5,205.5C 281.833,205.5 275.167,205.5 268.5,205.5 Z"/></g>
<g><path style="opacity:1" fill="#241d55" d="M 234.5,237.5 C 241.167,237.5 247.833,237.5 254.5,237.5C 254.5,244.167 254.5,250.833 254.5,257.5C 254.5,250.833 254.5,244.167 254.5,237.5C 247.833,237.5 241.167,237.5 234.5,237.5 Z"/></g>
<g><path style="opacity:1" fill="#7f7b9c" d="M 234.5,237.5 C 241.313,236.509 248.313,236.175 255.5,236.5C 255.825,243.687 255.491,250.687 254.5,257.5C 254.5,250.833 254.5,244.167 254.5,237.5C 247.833,237.5 241.167,237.5 234.5,237.5 Z"/></g>
<g><path style="opacity:1" fill="#241d55" d="M 268.5,237.5 C 275.167,237.5 281.833,237.5 288.5,237.5C 288.5,244.167 288.5,250.833 288.5,257.5C 288.5,250.833 288.5,244.167 288.5,237.5C 281.833,237.5 275.167,237.5 268.5,237.5 Z"/></g>
<g><path style="opacity:1" fill="#7f7b9c" d="M 268.5,237.5 C 275.313,236.509 282.313,236.175 289.5,236.5C 289.825,243.687 289.491,250.687 288.5,257.5C 288.5,250.833 288.5,244.167 288.5,237.5C 281.833,237.5 275.167,237.5 268.5,237.5 Z"/></g>
<g><path style="opacity:1" fill="#308dcc" d="M 54.5,261.5 C 55.1667,261.5 55.8333,261.5 56.5,261.5C 70.7998,272.144 86.7998,279.311 104.5,283C 137.943,289.205 171.277,288.539 204.5,281C 223.389,275.861 242.389,271.194 261.5,267C 321.496,255.778 380.163,260.444 437.5,281C 447.112,285.139 456.446,289.806 465.5,295C 406.375,281.153 346.709,278.82 286.5,288C 260.983,292.507 235.65,297.84 210.5,304C 166.871,313.172 125.204,307.838 85.5,288C 73.504,281.175 63.1707,272.342 54.5,261.5 Z"/></g>
<g><path style="opacity:1" fill="#282357" d="M 27.5,401.5 C 35.9839,402.493 44.6506,402.826 53.5,402.5C 53.5,404.5 53.5,406.5 53.5,408.5C 42.5,408.5 31.5,408.5 20.5,408.5C 20.5,385.5 20.5,362.5 20.5,339.5C 22.8333,339.5 25.1667,339.5 27.5,339.5C 27.5,360.167 27.5,380.833 27.5,401.5 Z"/></g>
<g><path style="opacity:1" fill="#241f54" d="M 151.5,339.5 C 159.84,339.334 168.173,339.5 176.5,340C 191.353,344.161 196.187,353.661 191,368.5C 188.1,372.734 184.6,376.234 180.5,379C 185.365,388.563 190.365,398.063 195.5,407.5C 190.833,408.833 186.167,408.833 181.5,407.5C 176.657,397.806 171.324,388.472 165.5,379.5C 164.502,389.144 164.168,398.81 164.5,408.5C 160.167,408.5 155.833,408.5 151.5,408.5C 151.5,385.5 151.5,362.5 151.5,339.5 Z"/></g>
<g><path style="opacity:1" fill="#272156" d="M 205.5,339.5 C 209.833,339.5 214.167,339.5 218.5,339.5C 218.5,362.5 218.5,385.5 218.5,408.5C 214.167,408.5 209.833,408.5 205.5,408.5C 205.5,385.5 205.5,362.5 205.5,339.5 Z"/></g>
<g><path style="opacity:1" fill="#262055" d="M 228.5,339.5 C 232.884,339.174 237.217,339.508 241.5,340.5C 247.235,356.205 253.068,371.872 259,387.5C 264.84,371.823 270.673,356.157 276.5,340.5C 280.833,339.167 285.167,339.167 289.5,340.5C 280.898,362.975 272.898,385.642 265.5,408.5C 261.167,408.5 256.833,408.5 252.5,408.5C 244.504,385.512 236.504,362.512 228.5,339.5 Z"/></g>
<g><path style="opacity:1" fill="#231e53" d="M 337.5,339.5 C 337.5,343.5 337.5,347.5 337.5,351.5C 329.167,351.5 320.833,351.5 312.5,351.5C 312.5,356.167 312.5,360.833 312.5,365.5C 320.833,365.5 329.167,365.5 337.5,365.5C 337.5,369.5 337.5,373.5 337.5,377.5C 329.5,377.5 321.5,377.5 313.5,377.5C 312.51,383.645 312.177,389.978 312.5,396.5C 320.833,396.5 329.167,396.5 337.5,396.5C 337.5,400.5 337.5,404.5 337.5,408.5C 325.167,408.5 312.833,408.5 300.5,408.5C 300.5,385.5 300.5,362.5 300.5,339.5C 312.833,339.5 325.167,339.5 337.5,339.5 Z"/></g>
<g><path style="opacity:1" fill="#251f54" d="M 351.5,339.5 C 359.507,339.334 367.507,339.5 375.5,340C 389.856,343.871 395.023,353.037 391,367.5C 388.581,372.63 384.748,376.296 379.5,378.5C 384.706,388.413 390.04,398.247 395.5,408C 390.833,408.667 386.167,408.667 381.5,408C 376.373,398.913 371.373,389.747 366.5,380.5C 365.675,379.614 364.675,379.281 363.5,379.5C 363.5,389.167 363.5,398.833 363.5,408.5C 359.5,408.5 355.5,408.5 351.5,408.5C 351.5,385.5 351.5,362.5 351.5,339.5 Z"/></g>
<g><path style="opacity:1" fill="#272156" d="M 404.5,339.5 C 408.833,339.5 413.167,339.5 417.5,339.5C 417.5,362.5 417.5,385.5 417.5,408.5C 413.167,408.5 408.833,408.5 404.5,408.5C 404.5,385.5 404.5,362.5 404.5,339.5 Z"/></g>
<g><path style="opacity:1" fill="#262155" d="M 452.5,339.5 C 457.544,339.173 462.544,339.506 467.5,340.5C 476.266,362.966 484.933,385.466 493.5,408C 488.798,408.828 484.131,408.662 479.5,407.5C 477.833,403.5 476.167,399.5 474.5,395.5C 464.833,394.167 455.167,394.167 445.5,395.5C 444.122,399.803 442.456,403.97 440.5,408C 436.179,408.499 431.846,408.666 427.5,408.5C 436.027,385.587 444.36,362.587 452.5,339.5 Z"/></g>
<g><path style="opacity:1" fill="#fcfcfc" d="M 164.5,352.5 C 168.182,352.335 171.848,352.501 175.5,353C 178.683,354.018 180.016,356.185 179.5,359.5C 179.674,361.693 179.007,363.527 177.5,365C 173.27,366.29 168.936,366.79 164.5,366.5C 164.5,361.833 164.5,357.167 164.5,352.5 Z"/></g>
<g><path style="opacity:1" fill="#f3f3f6" d="M 363.5,352.5 C 367.514,352.334 371.514,352.501 375.5,353C 379.412,355.611 380.412,359.111 378.5,363.5C 377.335,364.584 376.002,365.417 374.5,366C 370.848,366.499 367.182,366.665 363.5,366.5C 363.5,361.833 363.5,357.167 363.5,352.5 Z"/></g>
<g><path style="opacity:1" fill="#282357" d="M 80.5,356.5 C 91.6214,354.651 100.788,357.985 108,366.5C 108.498,363.518 108.665,360.518 108.5,357.5C 110.5,357.5 112.5,357.5 114.5,357.5C 114.5,374.5 114.5,391.5 114.5,408.5C 112.5,408.5 110.5,408.5 108.5,408.5C 108.813,405.753 108.48,403.086 107.5,400.5C 100.219,408.459 91.2189,411.292 80.5,409C 65.4995,402.166 59.6662,390.666 63,374.5C 66.3531,365.982 72.1865,359.982 80.5,356.5 Z"/></g>
<g><path style="opacity:1" fill="#f4f4f6" d="M 459.5,358.5 C 463.461,365.6 466.794,373.1 469.5,381C 463.509,381.499 457.509,381.666 451.5,381.5C 453.768,373.695 456.435,366.028 459.5,358.5 Z"/></g>
<g><path style="opacity:1" fill="#fcfcfd" d="M 82.5,362.5 C 100.49,361.324 108.99,369.657 108,387.5C 104.178,400.168 95.6779,405.335 82.5,403C 71.0058,397.846 66.5058,389.013 69,376.5C 71.6873,369.981 76.1873,365.314 82.5,362.5 Z"/></g>
<g><path style="opacity:1" fill="#6a668a" d="M 337.5,339.5 C 338.485,343.634 338.818,347.968 338.5,352.5C 330.167,352.5 321.833,352.5 313.5,352.5C 313.5,356.5 313.5,360.5 313.5,364.5C 321.833,364.5 330.167,364.5 338.5,364.5C 338.818,369.032 338.485,373.366 337.5,377.5C 337.5,373.5 337.5,369.5 337.5,365.5C 329.167,365.5 320.833,365.5 312.5,365.5C 312.5,360.833 312.5,356.167 312.5,351.5C 320.833,351.5 329.167,351.5 337.5,351.5C 337.5,347.5 337.5,343.5 337.5,339.5 Z"/></g>
<g><path style="opacity:1" fill="#716d90" d="M 313.5,377.5 C 313.5,383.5 313.5,389.5 313.5,395.5C 321.833,395.5 330.167,395.5 338.5,395.5C 338.818,400.032 338.485,404.366 337.5,408.5C 337.5,404.5 337.5,400.5 337.5,396.5C 329.167,396.5 320.833,396.5 312.5,396.5C 312.177,389.978 312.51,383.645 313.5,377.5 Z"/></g>
<g><path style="opacity:1" fill="#5a567e" d="M 27.5,401.5 C 36.5,401.5 45.5,401.5 54.5,401.5C 54.8016,404.059 54.4682,406.393 53.5,408.5C 53.5,406.5 53.5,404.5 53.5,402.5C 44.6506,402.826 35.9839,402.493 27.5,401.5 Z"/></g>
<g><path style="opacity:1" fill="#4a926c" d="M 143.5,427.5 C 146.602,427.154 149.435,427.821 152,429.5C 152.756,431.809 152.256,433.809 150.5,435.5C 151.961,437.811 152.294,440.144 151.5,442.5C 150.232,440.696 149.565,438.696 149.5,436.5C 148.167,436.5 146.833,436.5 145.5,436.5C 145.5,438.5 145.5,440.5 145.5,442.5C 144.5,442.5 143.5,442.5 142.5,442.5C 142.221,437.405 142.555,432.405 143.5,427.5 Z"/></g>
<g><path style="opacity:1" fill="#4f9672" d="M 159.5,427.5 C 161.76,428.238 161.927,429.238 160,430.5C 158.272,429.648 158.105,428.648 159.5,427.5 Z"/></g>
<g><path style="opacity:1" fill="#4b936e" d="M 226.5,427.5 C 229.247,427.187 231.914,427.52 234.5,428.5C 232.955,429.452 231.288,429.785 229.5,429.5C 229.5,430.833 229.5,432.167 229.5,433.5C 236.167,434.167 236.167,434.833 229.5,435.5C 229.5,437.167 229.5,438.833 229.5,440.5C 231.604,440.201 233.604,440.534 235.5,441.5C 232.572,442.484 229.572,442.817 226.5,442.5C 226.5,437.5 226.5,432.5 226.5,427.5 Z"/></g>
<g><path style="opacity:1" fill="#3d8960" d="M 322.5,427.5 C 324.337,427.639 324.67,428.306 323.5,429.5C 322.702,429.043 322.369,428.376 322.5,427.5 Z"/></g>
<g><path style="opacity:1" fill="#2f8359" d="M 451.5,427.5 C 453.527,427.338 455.527,427.505 457.5,428C 461.108,429.957 461.441,432.457 458.5,435.5C 460.31,437.707 460.643,440.041 459.5,442.5C 458.682,440.892 458.015,439.225 457.5,437.5C 456.311,436.571 454.978,436.238 453.5,436.5C 453.799,438.604 453.466,440.604 452.5,442.5C 451.506,437.544 451.173,432.544 451.5,427.5 Z"/></g>
<g><path style="opacity:1" fill="#3d8960" d="M 467.5,427.5 C 469.337,427.639 469.67,428.306 468.5,429.5C 467.702,429.043 467.369,428.376 467.5,427.5 Z"/></g>
<g><path style="opacity:1" fill="#35865d" d="M 21.5,427.5 C 29.5,428.167 29.5,428.833 21.5,429.5C 21.6263,432.595 23.293,434.428 26.5,435C 28.2756,441.389 25.9423,443.556 19.5,441.5C 21.396,440.534 23.396,440.201 25.5,440.5C 25.6567,439.127 25.49,437.793 25,436.5C 19.4019,435.075 18.2352,432.075 21.5,427.5 Z"/></g>
<g><path style="opacity:1" fill="#3e8e67" d="M 86.5,427.5 C 90.226,427.177 93.8927,427.511 97.5,428.5C 95.9547,429.452 94.288,429.785 92.5,429.5C 91.8333,446.833 91.1667,446.833 90.5,429.5C 88.5168,429.843 87.1834,429.176 86.5,427.5 Z"/></g>
<g><path style="opacity:1" fill="#f2f7f5" d="M 145.5,429.5 C 147.948,429.01 149.615,429.843 150.5,432C 149.381,433.876 147.714,434.709 145.5,434.5C 145.5,432.833 145.5,431.167 145.5,429.5 Z"/></g>
<g><path style="opacity:1" fill="#2b8257" d="M 258.5,429.5 C 260.213,430.305 261.879,431.305 263.5,432.5C 262.675,433.386 261.675,433.719 260.5,433.5C 260.337,435.857 260.503,438.19 261,440.5C 261.75,441.126 262.584,441.626 263.5,442C 262.056,442.781 260.723,442.614 259.5,441.5C 258.204,437.47 257.87,433.47 258.5,429.5 Z"/></g>
<g><path style="opacity:1" fill="#2b8257" d="M 296.5,429.5 C 298.213,430.305 299.879,431.305 301.5,432.5C 300.675,433.386 299.675,433.719 298.5,433.5C 298.337,435.857 298.503,438.19 299,440.5C 299.75,441.126 300.584,441.626 301.5,442C 300.056,442.781 298.723,442.614 297.5,441.5C 296.204,437.47 295.87,433.47 296.5,429.5 Z"/></g>
<g><path style="opacity:1" fill="#3e8e67" d="M 394.5,427.5 C 398.226,427.177 401.893,427.511 405.5,428.5C 403.955,429.452 402.288,429.785 400.5,429.5C 399.833,446.833 399.167,446.833 398.5,429.5C 396.517,429.843 395.183,429.176 394.5,427.5 Z"/></g>
<g><path style="opacity:1" fill="#f6faf8" d="M 453.5,429.5 C 457.676,428.831 459.009,430.331 457.5,434C 456.207,434.49 454.873,434.657 453.5,434.5C 453.5,432.833 453.5,431.167 453.5,429.5 Z"/></g>
<g><path style="opacity:1" fill="#569975" d="M 158.5,431.5 C 159.5,431.5 160.5,431.5 161.5,431.5C 161.5,435.167 161.5,438.833 161.5,442.5C 160.5,442.5 159.5,442.5 158.5,442.5C 158.5,438.833 158.5,435.167 158.5,431.5 Z"/></g>
<g><path style="opacity:1" fill="#519671" d="M 200.5,433.5 C 200.5,436.5 200.5,439.5 200.5,442.5C 199.5,442.5 198.5,442.5 197.5,442.5C 197.177,438.774 197.511,435.107 198.5,431.5C 199.182,432.243 199.849,432.909 200.5,433.5 Z"/></g>
<g><path style="opacity:1" fill="#3e8e67" d="M 200.5,433.5 C 201.14,431.668 202.14,431.335 203.5,432.5C 202.675,433.386 201.675,433.719 200.5,433.5 Z"/></g>
<g><path style="opacity:1" fill="#549874" d="M 241.5,431.5 C 244.325,431.758 247.158,432.092 250,432.5C 251.316,435.688 251.816,439.022 251.5,442.5C 250.5,442.5 249.5,442.5 248.5,442.5C 248.5,439.5 248.5,436.5 248.5,433.5C 247.167,433.5 245.833,433.5 244.5,433.5C 244.5,436.5 244.5,439.5 244.5,442.5C 243.5,442.5 242.5,442.5 241.5,442.5C 241.5,438.833 241.5,435.167 241.5,431.5 Z"/></g>
<g><path style="opacity:1" fill="#34855c" d="M 284.5,431.5 C 286.458,431.908 288.458,432.241 290.5,432.5C 289.5,433.167 288.5,433.833 287.5,434.5C 286.926,437.177 286.259,439.843 285.5,442.5C 284.511,438.893 284.177,435.226 284.5,431.5 Z"/></g>
<g><path style="opacity:1" fill="#3f8e67" d="M 322.5,431.5 C 323.787,432.871 324.453,434.705 324.5,437C 324.167,438.833 323.833,440.667 323.5,442.5C 322.511,438.893 322.177,435.226 322.5,431.5 Z"/></g>
<g><path style="opacity:1" fill="#237c4f" d="M 331.5,431.5 C 333.152,432.807 334.818,432.807 336.5,431.5C 338.029,431.529 339.196,432.196 340,433.5C 340.821,436.554 340.655,439.554 339.5,442.5C 338.516,439.572 338.183,436.572 338.5,433.5C 336.856,433.286 335.356,433.62 334,434.5C 333.818,437.226 333.318,439.893 332.5,442.5C 331.511,438.893 331.177,435.226 331.5,431.5 Z"/></g>
<g><path style="opacity:1" fill="#3f8e67" d="M 467.5,431.5 C 468.787,432.871 469.453,434.705 469.5,437C 469.167,438.833 468.833,440.667 468.5,442.5C 467.511,438.893 467.177,435.226 467.5,431.5 Z"/></g>
<g><path style="opacity:1" fill="#3c8b63" d="M 506.5,431.5 C 508.225,432.278 509.891,432.611 511.5,432.5C 510.758,433.287 509.925,433.953 509,434.5C 508.818,437.226 508.318,439.893 507.5,442.5C 506.511,438.893 506.177,435.226 506.5,431.5 Z"/></g>
<g><path style="opacity:1" fill="#4a936e" d="M 35.5,431.5 C 40.6901,430.842 43.0234,433.175 42.5,438.5C 42.1667,439.833 41.8333,441.167 41.5,442.5C 40.0325,441.305 38.5325,441.305 37,442.5C 34.0331,441.738 33.1998,440.071 34.5,437.5C 36.0461,436.316 37.7127,435.316 39.5,434.5C 37.9223,433.702 36.2556,433.202 34.5,433C 35.056,432.617 35.3893,432.117 35.5,431.5 Z"/></g>
<g><path style="opacity:1" fill="#39885f" d="M 65.5,431.5 C 70.0168,431.02 72.3502,433.02 72.5,437.5C 70.1667,437.5 67.8333,437.5 65.5,437.5C 65.5,438.5 65.5,439.5 65.5,440.5C 67.604,440.201 69.604,440.534 71.5,441.5C 64.5253,443.356 62.0253,440.689 64,433.5C 64.7172,432.956 65.2172,432.289 65.5,431.5 Z"/></g>
<g><path style="opacity:1" fill="#f4f8f6" d="M 65.5,433.5 C 67.4286,433.231 69.0953,433.731 70.5,435C 69.6667,435.167 68.8333,435.333 68,435.5C 66.6244,435.316 65.7911,434.649 65.5,433.5 Z"/></g>
<g><path style="opacity:1" fill="#549874" d="M 102.5,427.5 C 103.999,428.678 104.999,430.345 105.5,432.5C 107.371,431.233 109.204,431.233 111,432.5C 112.316,435.688 112.816,439.022 112.5,442.5C 111.5,442.5 110.5,442.5 109.5,442.5C 109.5,439.5 109.5,436.5 109.5,433.5C 108.167,433.5 106.833,433.5 105.5,433.5C 105.5,436.5 105.5,439.5 105.5,442.5C 104.5,442.5 103.5,442.5 102.5,442.5C 102.5,437.5 102.5,432.5 102.5,427.5 Z"/></g>
<g><path style="opacity:1" fill="#39885f" d="M 184.5,431.5 C 189.017,431.02 191.35,433.02 191.5,437.5C 189.167,437.5 186.833,437.5 184.5,437.5C 184.5,438.5 184.5,439.5 184.5,440.5C 186.604,440.201 188.604,440.534 190.5,441.5C 183.525,443.356 181.025,440.689 183,433.5C 183.717,432.956 184.217,432.289 184.5,431.5 Z"/></g>
<g><path style="opacity:1" fill="#f4f8f6" d="M 184.5,433.5 C 186.429,433.231 188.095,433.731 189.5,435C 188.667,435.167 187.833,435.333 187,435.5C 185.624,435.316 184.791,434.649 184.5,433.5 Z"/></g>
<g><path style="opacity:1" fill="#3c8a61" d="M 271.5,431.5 C 276.017,431.02 278.35,433.02 278.5,437.5C 268.227,436.872 267.893,438.205 277.5,441.5C 272.579,443.757 269.912,442.257 269.5,437C 269.395,434.822 270.061,432.988 271.5,431.5 Z"/></g>
<g><path style="opacity:1" fill="#f2f7f5" d="M 271.5,433.5 C 273.429,433.231 275.095,433.731 276.5,435C 275.667,435.167 274.833,435.333 274,435.5C 272.624,435.316 271.791,434.649 271.5,433.5 Z"/></g>
<g><path style="opacity:1" fill="#4a936e" d="M 308.5,431.5 C 313.69,430.842 316.023,433.175 315.5,438.5C 315.167,439.833 314.833,441.167 314.5,442.5C 313.033,441.305 311.533,441.305 310,442.5C 307.033,441.738 306.2,440.071 307.5,437.5C 309.046,436.316 310.713,435.316 312.5,434.5C 310.922,433.702 309.256,433.202 307.5,433C 308.056,432.617 308.389,432.117 308.5,431.5 Z"/></g>
<g><path style="opacity:1" fill="#378960" d="M 356.5,427.5 C 358.857,427.337 361.19,427.503 363.5,428C 366.167,430 366.167,432 363.5,434C 366.167,436.667 366.167,439.333 363.5,442C 361.19,442.497 358.857,442.663 356.5,442.5C 356.5,437.5 356.5,432.5 356.5,427.5 Z"/></g>
<g><path style="opacity:1" fill="#f2f7f5" d="M 358.5,429.5 C 360.665,429.116 362.332,429.783 363.5,431.5C 362.332,433.217 360.665,433.884 358.5,433.5C 358.5,432.167 358.5,430.833 358.5,429.5 Z"/></g>
<g><path style="opacity:1" fill="#549874" d="M 410.5,427.5 C 411.999,428.678 412.999,430.345 413.5,432.5C 415.371,431.233 417.204,431.233 419,432.5C 420.316,435.688 420.816,439.022 420.5,442.5C 419.5,442.5 418.5,442.5 417.5,442.5C 417.5,439.5 417.5,436.5 417.5,433.5C 416.167,433.5 414.833,433.5 413.5,433.5C 413.5,436.5 413.5,439.5 413.5,442.5C 412.5,442.5 411.5,442.5 410.5,442.5C 410.5,437.5 410.5,432.5 410.5,427.5 Z"/></g>
<g><path style="opacity:1" fill="#31845a" d="M 121.5,431.5 C 125.833,431.167 127.833,433.167 127.5,437.5C 118.554,437.452 118.221,438.785 126.5,441.5C 121.93,443.382 119.263,441.882 118.5,437C 118.613,434.601 119.613,432.768 121.5,431.5 Z"/></g>
<g><path style="opacity:1" fill="#f7faf9" d="M 121.5,433.5 C 122.978,433.238 124.311,433.571 125.5,434.5C 123.926,435.631 122.259,435.798 120.5,435C 121.056,434.617 121.389,434.117 121.5,433.5 Z"/></g>
<g><path style="opacity:1" fill="#31845a" d="M 429.5,431.5 C 433.833,431.167 435.833,433.167 435.5,437.5C 426.554,437.452 426.221,438.785 434.5,441.5C 429.93,443.382 427.263,441.882 426.5,437C 426.613,434.601 427.613,432.768 429.5,431.5 Z"/></g>
<g><path style="opacity:1" fill="#f7faf9" d="M 429.5,433.5 C 430.978,433.238 432.311,433.571 433.5,434.5C 431.926,435.631 430.259,435.798 428.5,435C 429.056,434.617 429.389,434.117 429.5,433.5 Z"/></g>
<g><path style="opacity:1" fill="#31845a" d="M 493.5,431.5 C 497.833,431.167 499.833,433.167 499.5,437.5C 490.554,437.452 490.221,438.785 498.5,441.5C 493.93,443.382 491.263,441.882 490.5,437C 490.613,434.601 491.613,432.768 493.5,431.5 Z"/></g>
<g><path style="opacity:1" fill="#f7faf9" d="M 493.5,433.5 C 494.978,433.238 496.311,433.571 497.5,434.5C 495.926,435.631 494.259,435.798 492.5,435C 493.056,434.617 493.389,434.117 493.5,433.5 Z"/></g>
<g><path style="opacity:1" fill="#f2f7f5" d="M 358.5,435.5 C 362.5,434.833 364.167,436.5 363.5,440.5C 361.833,440.5 360.167,440.5 358.5,440.5C 358.5,438.833 358.5,437.167 358.5,435.5 Z"/></g>
<g><path style="opacity:1" fill="#eff6f3" d="M 36.5,437.5 C 37.5,437.5 38.5,437.5 39.5,437.5C 39.5,438.5 39.5,439.5 39.5,440.5C 36.4331,440.879 35.4331,439.879 36.5,437.5 Z"/></g>
<g><path style="opacity:1" fill="#eff6f3" d="M 309.5,437.5 C 310.5,437.5 311.5,437.5 312.5,437.5C 312.5,438.5 312.5,439.5 312.5,440.5C 309.433,440.879 308.433,439.879 309.5,437.5 Z"/></g>
<g><path style="opacity:1" fill="#35865d" d="M 48.5,431.5 C 49.4972,431.47 50.1639,431.97 50.5,433C 51.1371,435.245 51.9704,437.412 53,439.5C 53.7348,437.129 54.5682,434.795 55.5,432.5C 56.1667,431.167 56.8333,431.167 57.5,432.5C 53.6422,445.962 50.6422,445.629 48.5,431.5 Z"/></g>
<g><path style="opacity:1" fill="#35865d" d="M 167.5,431.5 C 168.497,431.47 169.164,431.97 169.5,433C 170.137,435.245 170.97,437.412 172,439.5C 172.735,437.129 173.568,434.795 174.5,432.5C 175.167,431.167 175.833,431.167 176.5,432.5C 172.642,445.962 169.642,445.629 167.5,431.5 Z"/></g>
<g><path style="opacity:1" fill="#36865d" d="M 371.5,431.5 C 372.496,431.414 373.329,431.748 374,432.5C 375.635,439.132 377.302,439.132 379,432.5C 380.018,431.294 380.518,431.627 380.5,433.5C 379.453,438.597 377.12,442.931 373.5,446.5C 373.167,446.167 372.833,445.833 372.5,445.5C 373.885,444.449 374.885,443.116 375.5,441.5C 373.964,438.222 372.631,434.889 371.5,431.5 Z"/></g>
<g><path style="opacity:1" fill="#2b8157" d="M 475.5,431.5 C 476.376,431.369 477.043,431.702 477.5,432.5C 478.432,434.795 479.265,437.129 480,439.5C 481.072,436.782 482.238,434.115 483.5,431.5C 483.698,435.414 482.532,439.081 480,442.5C 478.048,439.033 476.548,435.366 475.5,431.5 Z"/></g>
<g><path style="opacity:1" fill="#519672" d="M 209.5,439.5 C 210.376,439.369 211.043,439.702 211.5,440.5C 209.103,445.601 208.437,445.268 209.5,439.5 Z"/></g>
</svg>
